<?xml version="1.0" encoding="UTF-8" standalone="no"?>
<svg width="76px" height="10px" viewBox="0 0 76 10" version="1.1" xmlns="http://www.w3.org/2000/svg" xmlns:xlink="http://www.w3.org/1999/xlink" xmlns:sketch="http://www.bohemiancoding.com/sketch/ns">
    <!-- Generator: Sketch 3.4.4 (17249) - http://www.bohemiancoding.com/sketch -->
    <title>GET STARTED</title>
    <desc>Created with Sketch.</desc>
    <defs></defs>
    <g id="Page-1" stroke="none" stroke-width="1" fill="none" fill-rule="evenodd" sketch:type="MSPage">
        <g id="Theme-2---300x250" sketch:type="MSArtboardGroup" transform="translate(-194.000000, -215.000000)" fill="#FFFFFF">
            <path d="M194.492,219.812 C194.492,222.212 196.412,224.108 198.8,224.108 C200.54,224.108 201.776,223.328 201.776,223.328 C201.824,223.292 201.872,223.232 201.872,223.136 L201.872,220.064 C201.872,219.944 201.776,219.836 201.656,219.836 L199.352,219.836 C199.22,219.836 199.124,219.932 199.124,220.064 L199.124,221.012 C199.124,221.132 199.22,221.228 199.352,221.228 L200.312,221.228 L200.312,222.248 C200.072,222.344 199.556,222.548 198.884,222.548 C197.372,222.548 196.184,221.288 196.184,219.8 C196.184,218.3 197.372,217.016 198.872,217.016 C199.532,217.016 200.168,217.256 200.684,217.712 C200.792,217.808 200.9,217.808 200.996,217.712 L201.74,216.932 C201.836,216.836 201.824,216.692 201.728,216.596 C200.912,215.9 199.88,215.48 198.8,215.48 C196.412,215.48 194.492,217.412 194.492,219.812 L194.492,219.812 Z M203.769333,223.772 C203.769333,223.892 203.865333,224 203.997333,224 L208.881333,224 C209.013333,224 209.109333,223.892 209.109333,223.772 L209.109333,222.788 C209.109333,222.668 209.013333,222.56 208.881333,222.56 L205.329333,222.56 L205.329333,220.46 L208.293333,220.46 C208.413333,220.46 208.521333,220.364 208.521333,220.232 L208.521333,219.236 C208.521333,219.116 208.413333,219.008 208.293333,219.008 L205.329333,219.008 L205.329333,217.04 L208.881333,217.04 C209.013333,217.04 209.109333,216.932 209.109333,216.812 L209.109333,215.828 C209.109333,215.708 209.013333,215.6 208.881333,215.6 L203.997333,215.6 C203.865333,215.6 203.769333,215.708 203.769333,215.828 L203.769333,223.772 Z M212.086667,223.772 C212.086667,223.892 212.194667,224 212.314667,224 L213.430667,224 C213.550667,224 213.658667,223.892 213.658667,223.772 L213.658667,217.04 L215.494667,217.04 C215.626667,217.04 215.722667,216.932 215.722667,216.812 L215.722667,215.828 C215.722667,215.708 215.626667,215.6 215.494667,215.6 L210.250667,215.6 C210.118667,215.6 210.022667,215.708 210.022667,215.828 L210.022667,216.812 C210.022667,216.932 210.118667,217.04 210.250667,217.04 L212.086667,217.04 L212.086667,223.772 Z M219.457333,223.184 C219.697333,223.412 220.585333,224.12 222.097333,224.12 C223.789333,224.12 224.857333,222.98 224.857333,221.744 C224.857333,220.196 223.513333,219.5 222.349333,219.032 C221.377333,218.636 220.933333,218.252 220.933333,217.688 C220.933333,217.304 221.305333,216.848 221.989333,216.848 C222.649333,216.848 223.561333,217.448 223.657333,217.508 C223.801333,217.604 223.981333,217.508 224.077333,217.364 L224.533333,216.68 C224.617333,216.56 224.581333,216.356 224.461333,216.284 C224.221333,216.104 223.285333,215.48 222.061333,215.48 C220.153333,215.48 219.361333,216.716 219.361333,217.784 C219.361333,219.2 220.489333,219.92 221.617333,220.376 C222.625333,220.784 223.141333,221.204 223.141333,221.816 C223.141333,222.332 222.673333,222.74 222.049333,222.74 C221.269333,222.74 220.297333,222.032 220.237333,221.996 C220.129333,221.912 219.925333,221.912 219.829333,222.08 L219.397333,222.824 C219.289333,223.016 219.349333,223.076 219.457333,223.184 L219.457333,223.184 Z M227.654667,223.772 C227.654667,223.892 227.762667,224 227.882667,224 L228.998667,224 C229.118667,224 229.226667,223.892 229.226667,223.772 L229.226667,217.04 L231.062667,217.04 C231.194667,217.04 231.290667,216.932 231.290667,216.812 L231.290667,215.828 C231.290667,215.708 231.194667,215.6 231.062667,215.6 L225.818667,215.6 C225.686667,215.6 225.590667,215.708 225.590667,215.828 L225.590667,216.812 C225.590667,216.932 225.686667,217.04 225.818667,217.04 L227.654667,217.04 L227.654667,223.772 Z M231.328,224 L232.372,224 C232.564,224 232.672,223.88 232.72,223.76 L233.308,222.464 L236.896,222.464 L237.484,223.76 C237.568,223.928 237.652,224 237.832,224 L238.876,224 C239.056,224 239.152,223.844 239.08,223.688 L235.384,215.612 C235.348,215.54 235.3,215.48 235.18,215.48 L235.06,215.48 C234.952,215.48 234.892,215.54 234.856,215.612 L231.124,223.688 C231.052,223.844 231.148,224 231.328,224 L231.328,224 Z M233.896,221.132 L235.072,218.492 L235.108,218.492 L236.308,221.132 L233.896,221.132 Z M240.305333,223.772 C240.305333,223.892 240.401333,224 240.533333,224 L241.637333,224 C241.757333,224 241.865333,223.892 241.865333,223.772 L241.865333,220.712 L243.197333,220.712 L244.793333,223.892 C244.817333,223.94 244.877333,224 244.985333,224 L246.245333,224 C246.449333,224 246.533333,223.808 246.449333,223.652 L244.805333,220.604 C245.849333,220.184 246.581333,219.284 246.581333,218.18 C246.581333,216.752 245.405333,215.6 243.965333,215.6 L240.533333,215.6 C240.401333,215.6 240.305333,215.708 240.305333,215.828 L240.305333,223.772 Z M241.877333,219.428 L241.877333,217.04 L243.833333,217.04 C244.469333,217.04 245.021333,217.568 245.021333,218.204 C245.021333,218.876 244.469333,219.428 243.833333,219.428 L241.877333,219.428 Z M249.558667,223.772 C249.558667,223.892 249.666667,224 249.786667,224 L250.902667,224 C251.022667,224 251.130667,223.892 251.130667,223.772 L251.130667,217.04 L252.966667,217.04 C253.098667,217.04 253.194667,216.932 253.194667,216.812 L253.194667,215.828 C253.194667,215.708 253.098667,215.6 252.966667,215.6 L247.722667,215.6 C247.590667,215.6 247.494667,215.708 247.494667,215.828 L247.494667,216.812 C247.494667,216.932 247.590667,217.04 247.722667,217.04 L249.558667,217.04 L249.558667,223.772 Z M254.576,223.772 C254.576,223.892 254.672,224 254.804,224 L259.688,224 C259.82,224 259.916,223.892 259.916,223.772 L259.916,222.788 C259.916,222.668 259.82,222.56 259.688,222.56 L256.136,222.56 L256.136,220.46 L259.1,220.46 C259.22,220.46 259.328,220.364 259.328,220.232 L259.328,219.236 C259.328,219.116 259.22,219.008 259.1,219.008 L256.136,219.008 L256.136,217.04 L259.688,217.04 C259.82,217.04 259.916,216.932 259.916,216.812 L259.916,215.828 C259.916,215.708 259.82,215.6 259.688,215.6 L254.804,215.6 C254.672,215.6 254.576,215.708 254.576,215.828 L254.576,223.772 Z M261.765333,223.772 C261.765333,223.892 261.861333,224 261.981333,224 L264.825333,224 C267.141333,224 269.037333,222.116 269.037333,219.788 C269.037333,217.484 267.141333,215.6 264.825333,215.6 L261.981333,215.6 C261.861333,215.6 261.765333,215.708 261.765333,215.828 L261.765333,223.772 Z M263.313333,222.536 L263.313333,217.052 L264.681333,217.052 C266.241333,217.052 267.381333,218.228 267.381333,219.788 C267.381333,221.36 266.241333,222.536 264.681333,222.536 L263.313333,222.536 Z" id="GET-STARTED" sketch:type="MSShapeGroup"></path>
        </g>
    </g>
</svg>